<svg version="1.1" id="Layer_1" xmlns="http://www.w3.org/2000/svg" xmlns:xlink="http://www.w3.org/1999/xlink" x="0px" y="0px"
	 width="100%" viewBox="0 0 752 752" enable-background="new 0 0 752 752" xml:space="preserve">
<path fill="rgb(31 41 55)" opacity="1.000000" stroke="none" 
	d="
M348.000000,753.000000 
	C232.000000,753.000000 116.500000,753.000000 1.000000,753.000000 
	C1.000000,502.333344 1.000000,251.666672 1.000000,1.000000 
	C251.666672,1.000000 502.333344,1.000000 753.000000,1.000000 
	C753.000000,251.666672 753.000000,502.333344 753.000000,753.000000 
	C618.166687,753.000000 483.333344,753.000000 348.000000,753.000000 
M319.500000,366.000000 
	C302.170288,366.000000 284.840271,365.941071 267.510956,366.024048 
	C258.401337,366.067657 252.225632,372.630554 251.934372,381.579773 
	C251.632950,390.841766 259.638672,396.965424 267.689301,396.970825 
	C341.840332,397.020325 415.991425,397.021637 490.142334,396.915710 
	C492.918823,396.911743 495.848785,396.031982 498.437622,394.928040 
	C504.336121,392.412903 508.138580,384.412537 505.983917,376.949646 
	C504.049225,370.248718 497.876526,366.001160 489.964325,366.000916 
	C433.476227,365.999176 376.988098,366.000000 319.500000,366.000000 
M469.500000,546.000000 
	C479.157043,546.000000 488.815613,546.100952 498.470337,545.950745 
	C502.383667,545.889893 506.413757,545.781921 510.176483,544.839783 
	C531.527344,539.493896 543.783813,523.149963 544.788147,502.807465 
	C545.763977,483.041992 545.353577,463.181427 544.841614,443.381012 
	C544.607239,434.317719 539.962097,427.438751 527.796509,427.954193 
	C519.843445,428.291138 514.006836,434.699036 514.002686,443.671661 
	C513.993896,462.652802 513.830811,481.636200 514.079102,500.614075 
	C514.185852,508.777008 507.642761,515.205261 499.485199,515.088013 
	C480.341461,514.812866 461.188629,514.843384 442.045837,515.149353 
	C438.735535,515.202271 434.952393,516.521240 432.270020,518.469971 
	C426.985809,522.308899 425.678345,529.455505 427.970245,536.126465 
	C430.191193,542.590942 435.495453,545.479858 443.031158,545.893250 
	C451.497253,546.357666 460.008423,546.000000 469.500000,546.000000 
M251.636063,513.124451 
	C245.540756,510.348114 244.079407,504.937195 244.042984,499.026581 
	C243.926971,480.202423 244.007065,461.377045 243.996780,442.552155 
	C243.992157,434.098328 237.727921,428.004089 229.079636,428.000031 
	C220.333923,427.995911 214.009979,434.009979 214.004517,442.392883 
	C213.990860,463.383484 213.939301,484.374451 214.064468,505.364288 
	C214.083588,508.568634 214.440948,511.957825 215.527222,514.938904 
	C223.332031,536.357910 239.153625,545.601135 260.484222,545.940979 
	C278.471588,546.227661 296.468292,546.103088 314.457977,545.901306 
	C317.549713,545.866577 320.999847,545.186035 323.639099,543.675964 
	C330.807983,539.574219 333.287262,532.368286 330.890686,524.686340 
	C329.241730,519.400757 322.176208,515.003906 315.289642,515.001892 
	C296.298157,514.996399 277.306458,515.039001 258.315430,514.943604 
	C256.269318,514.933289 254.227112,514.142517 251.636063,513.124451 
M479.499878,245.000000 
	C485.498688,245.000000 491.526245,244.626892 497.489655,245.086243 
	C506.751160,245.799637 514.187988,248.872360 514.050964,261.600922 
	C513.852051,280.095154 514.036743,298.593201 513.980408,317.089386 
	C513.960266,323.709229 516.823059,329.791565 525.018799,332.205292 
	C535.264465,335.222717 544.402222,326.591064 544.172729,318.231354 
	C543.633423,298.583374 544.231506,278.906128 543.861694,259.250305 
	C543.747986,253.205093 542.948914,246.822601 540.800781,241.233704 
	C535.121582,226.457825 520.383423,215.646362 504.252777,215.157227 
	C483.109711,214.516098 461.932495,214.971924 440.770081,215.013992 
	C432.461334,215.030518 427.355682,221.756470 426.862671,231.600845 
	C426.527557,238.293091 433.627350,245.420898 440.513245,245.144638 
	C453.157074,244.637360 465.835785,245.000000 479.499878,245.000000 
M244.000000,268.526428 
	C244.000000,267.693939 244.040283,266.859192 243.994034,266.029297 
	C243.110153,250.168610 249.602554,244.670227 265.142090,244.932953 
	C282.452942,245.225616 299.772583,245.003281 317.088379,244.998627 
	C325.893036,244.996262 332.016052,238.807083 332.000031,229.942963 
	C331.984314,221.262955 325.759644,215.045670 316.970154,215.008072 
	C308.312408,214.971039 299.652405,214.882614 290.996918,215.026688 
	C276.935608,215.260742 262.755219,214.624191 248.846954,216.251297 
	C229.598663,218.503128 214.874741,236.234528 214.173615,255.457764 
	C213.409470,276.408630 213.761215,297.412964 214.114288,318.385773 
	C214.261230,327.114105 220.650604,332.732910 229.563538,332.951965 
	C237.693283,333.151825 243.991318,326.653961 243.996780,318.468414 
	C244.007645,302.151611 244.000000,285.834778 244.000000,268.526428 
z"/>
<path fill="#FFFFFF" opacity="1.000000" stroke="none" 
	d="
M320.000000,366.000000 
	C376.988098,366.000000 433.476227,365.999176 489.964325,366.000916 
	C497.876526,366.001160 504.049225,370.248718 505.983917,376.949646 
	C508.138580,384.412537 504.336121,392.412903 498.437622,394.928040 
	C495.848785,396.031982 492.918823,396.911743 490.142334,396.915710 
	C415.991425,397.021637 341.840332,397.020325 267.689301,396.970825 
	C259.638672,396.965424 251.632950,390.841766 251.934372,381.579773 
	C252.225632,372.630554 258.401337,366.067657 267.510956,366.024048 
	C284.840271,365.941071 302.170288,366.000000 320.000000,366.000000 
z"/>
<path fill="#FFFFFF" opacity="1.000000" stroke="none" 
	d="
M469.000000,546.000000 
	C460.008423,546.000000 451.497253,546.357666 443.031158,545.893250 
	C435.495453,545.479858 430.191193,542.590942 427.970245,536.126465 
	C425.678345,529.455505 426.985809,522.308899 432.270020,518.469971 
	C434.952393,516.521240 438.735535,515.202271 442.045837,515.149353 
	C461.188629,514.843384 480.341461,514.812866 499.485199,515.088013 
	C507.642761,515.205261 514.185852,508.777008 514.079102,500.614075 
	C513.830811,481.636200 513.993896,462.652802 514.002686,443.671661 
	C514.006836,434.699036 519.843445,428.291138 527.796509,427.954193 
	C539.962097,427.438751 544.607239,434.317719 544.841614,443.381012 
	C545.353577,463.181427 545.763977,483.041992 544.788147,502.807465 
	C543.783813,523.149963 531.527344,539.493896 510.176483,544.839783 
	C506.413757,545.781921 502.383667,545.889893 498.470337,545.950745 
	C488.815613,546.100952 479.157043,546.000000 469.000000,546.000000 
z"/>
<path fill="#FFFFFF" opacity="1.000000" stroke="none" 
	d="
M251.909576,513.419128 
	C254.227112,514.142517 256.269318,514.933289 258.315430,514.943604 
	C277.306458,515.039001 296.298157,514.996399 315.289642,515.001892 
	C322.176208,515.003906 329.241730,519.400757 330.890686,524.686340 
	C333.287262,532.368286 330.807983,539.574219 323.639099,543.675964 
	C320.999847,545.186035 317.549713,545.866577 314.457977,545.901306 
	C296.468292,546.103088 278.471588,546.227661 260.484222,545.940979 
	C239.153625,545.601135 223.332031,536.357910 215.527222,514.938904 
	C214.440948,511.957825 214.083588,508.568634 214.064468,505.364288 
	C213.939301,484.374451 213.990860,463.383484 214.004517,442.392883 
	C214.009979,434.009979 220.333923,427.995911 229.079636,428.000031 
	C237.727921,428.004089 243.992157,434.098328 243.996780,442.552155 
	C244.007065,461.377045 243.926971,480.202423 244.042984,499.026581 
	C244.079407,504.937195 245.540756,510.348114 251.909576,513.419128 
z"/>
<path fill="#FFFFFF" opacity="1.000000" stroke="none" 
	d="
M478.999939,245.000000 
	C465.835785,245.000000 453.157074,244.637360 440.513245,245.144638 
	C433.627350,245.420898 426.527557,238.293091 426.862671,231.600845 
	C427.355682,221.756470 432.461334,215.030518 440.770081,215.013992 
	C461.932495,214.971924 483.109711,214.516098 504.252777,215.157227 
	C520.383423,215.646362 535.121582,226.457825 540.800781,241.233704 
	C542.948914,246.822601 543.747986,253.205093 543.861694,259.250305 
	C544.231506,278.906128 543.633423,298.583374 544.172729,318.231354 
	C544.402222,326.591064 535.264465,335.222717 525.018799,332.205292 
	C516.823059,329.791565 513.960266,323.709229 513.980408,317.089386 
	C514.036743,298.593201 513.852051,280.095154 514.050964,261.600922 
	C514.187988,248.872360 506.751160,245.799637 497.489655,245.086243 
	C491.526245,244.626892 485.498688,245.000000 478.999939,245.000000 
z"/>
<path fill="#FFFFFF" opacity="1.000000" stroke="none" 
	d="
M244.000000,269.022217 
	C244.000000,285.834778 244.007645,302.151611 243.996780,318.468414 
	C243.991318,326.653961 237.693283,333.151825 229.563538,332.951965 
	C220.650604,332.732910 214.261230,327.114105 214.114288,318.385773 
	C213.761215,297.412964 213.409470,276.408630 214.173615,255.457764 
	C214.874741,236.234528 229.598663,218.503128 248.846954,216.251297 
	C262.755219,214.624191 276.935608,215.260742 290.996918,215.026688 
	C299.652405,214.882614 308.312408,214.971039 316.970154,215.008072 
	C325.759644,215.045670 331.984314,221.262955 332.000031,229.942963 
	C332.016052,238.807083 325.893036,244.996262 317.088379,244.998627 
	C299.772583,245.003281 282.452942,245.225616 265.142090,244.932953 
	C249.602554,244.670227 243.110153,250.168610 243.994034,266.029297 
	C244.040283,266.859192 244.000000,267.693939 244.000000,269.022217 
z"/>
</svg>